<?xml version="1.0" encoding="UTF-8" standalone="no"?>
<svg
   id="Layer_1"
   viewBox="0 0 552.8 198.8"
   version="1.1"
   sodipodi:docname="cb0b90825259483fe2cfe56c77133995.svg"
   width="552.79999"
   height="198.8"
   xmlns:inkscape="http://www.inkscape.org/namespaces/inkscape"
   xmlns:sodipodi="http://sodipodi.sourceforge.net/DTD/sodipodi-0.dtd"
   xmlns:xlink="http://www.w3.org/1999/xlink"
   xmlns="http://www.w3.org/2000/svg"
   xmlns:svg="http://www.w3.org/2000/svg">
  <sodipodi:namedview
     id="namedview81"
     pagecolor="#ffffff"
     bordercolor="#666666"
     borderopacity="1.0"
     inkscape:pageshadow="2"
     inkscape:pageopacity="0.0"
     inkscape:pagecheckerboard="0" />
  <style
     id="style2">.st0{fill:#fff}.st1{clip-path:url(#SVGID_2_)}.st2{clip-path:url(#SVGID_4_)}.st3{clip-path:url(#SVGID_6_)}.st4{clip-path:url(#SVGID_8_)}.st5{fill:#fff;stroke:#000;stroke-width:4;stroke-miterlimit:10}.st6{clip-path:url(#SVGID_8_)}.st6,.st7{fill:none;stroke:#000;stroke-width:4;stroke-miterlimit:10}.st8,.st9{clip-path:url(#SVGID_10_)}.st9{fill:none;stroke:#000;stroke-width:4;stroke-miterlimit:10}</style>
  <title
     id="title4">rs_school_js</title>
  <path
     d="m 285.4,61.4 26.3,-1.7 c 0.6,4.3 1.7,7.5 3.5,9.8 2.9,3.6 6.9,5.4 12.2,5.4 3.9,0 7,-0.9 9.1,-2.8 2,-1.5 3.2,-3.9 3.2,-6.4 0,-2.4 -1.1,-4.7 -3,-6.2 -2,-1.8 -6.7,-3.6 -14.1,-5.2 -12.1,-2.7 -20.8,-6.3 -25.9,-10.9 -5.1,-4.3 -8,-10.6 -7.8,-17.3 0,-4.6 1.4,-9.2 4,-13 3,-4.3 7.1,-7.7 12,-9.6 5.3,-2.3 12.7,-3.5 22,-3.5 11.4,0 20.1,2.1 26.1,6.4 6,4.2 9.6,11 10.7,20.3 l -26,1.5 c -0.7,-4 -2.1,-6.9 -4.4,-8.8 -2.3,-1.9 -5.3,-2.8 -9.2,-2.8 -3.2,0 -5.6,0.7 -7.2,2 -1.5,1.2 -2.5,3 -2.4,5 0,1.5 0.8,2.9 2,3.8 1.3,1.2 4.4,2.3 9.3,3.3 12.1,2.6 20.7,5.2 26,7.9 5.3,2.7 9.1,6 11.4,9.9 2.4,4 3.6,8.6 3.5,13.3 0,5.6 -1.6,11.2 -4.8,15.9 -3.3,4.9 -7.9,8.7 -13.3,11 -5.7,2.5 -12.9,3.8 -21.5,3.8 -15.2,0 -25.7,-2.9 -31.6,-8.8 -5.9,-5.9 -9.4,-13.3 -10.1,-22.3 z M 6.3,91 V 1.6 h 46.1 c 8.5,0 15.1,0.7 19.6,2.2 4.4,1.4 8.3,4.3 10.9,8.2 2.9,4.3 4.3,9.3 4.2,14.5 0.3,8.8 -4.2,17.2 -11.9,21.6 -3,1.7 -6.3,2.9 -9.7,3.5 2.5,0.7 5,1.9 7.2,3.3 1.7,1.4 3.1,3 4.4,4.7 1.5,1.7 2.8,3.6 3.9,5.6 L 94.4,91.1 H 63 L 48.2,63.6 c -1.9,-3.5 -3.5,-5.8 -5,-6.9 -2,-1.4 -4.4,-2.1 -6.8,-2.1 H 34 V 90.9 H 6.3 Z M 34,37.8 h 11.7 c 2.5,-0.2 4.9,-0.6 7.3,-1.2 1.8,-0.3 3.4,-1.3 4.5,-2.8 2.7,-3.6 2.3,-8.7 -1,-11.8 -1.8,-1.5 -5.3,-2.3 -10.3,-2.3 H 34 Z M 0,167.6 26.3,165.9 c 0.6,4.3 1.7,7.5 3.5,9.8 2.8,3.6 6.9,5.5 12.2,5.5 3.9,0 7,-0.9 9.1,-2.8 2,-1.6 3.2,-3.9 3.2,-6.4 0,-2.4 -1.1,-4.7 -3,-6.2 -2,-1.8 -6.7,-3.6 -14.2,-5.2 -12.1,-2.7 -20.8,-6.3 -25.9,-10.9 -5.1,-4.3 -8,-10.6 -7.8,-17.3 0,-4.6 1.4,-9.2 4,-13 3,-4.3 7.1,-7.7 12,-9.6 5.3,-2.3 12.7,-3.5 22,-3.5 11.4,0 20.1,2.1 26.1,6.4 6,4.3 9.5,11 10.6,20.3 l -26,1.5 c -0.7,-4 -2.1,-6.9 -4.4,-8.8 -2.2,-1.9 -5.3,-2.8 -9.2,-2.7 -3.2,0 -5.6,0.7 -7.2,2.1 -1.6,1.2 -2.5,3 -2.4,5 0,1.5 0.8,2.9 2,3.8 1.3,1.2 4.4,2.3 9.3,3.3 12.1,2.6 20.7,5.2 26,7.9 5.3,2.7 9.1,6 11.4,9.9 2.4,4 3.6,8.6 3.6,13.2 0,5.6 -1.7,11.1 -4.8,15.8 -3.3,4.9 -7.9,8.7 -13.3,11 -5.7,2.5 -12.9,3.8 -21.5,3.8 C 26.4,198.8 15.9,195.9 10,190 4.1,184 0.8,176.6 0,167.6 Z"
     id="path6" />
  <path
     d="m 133,160.6 24.2,7.3 c -1.3,6.1 -4,11.9 -7.7,17 -3.4,4.5 -7.9,8 -13,10.3 -5.2,2.3 -11.8,3.5 -19.8,3.5 -9.7,0 -17.7,-1.4 -23.8,-4.2 -6.2,-2.8 -11.5,-7.8 -16,-14.9 -4.5,-7.1 -6.7,-16.2 -6.7,-27.3 0,-14.8 3.9,-26.2 11.8,-34.1 7.9,-7.9 19,-11.9 33.4,-11.9 11.3,0 20.1,2.3 26.6,6.8 6.4,4.6 11.2,11.6 14.4,21 l -24.4,5.4 c -0.6,-2.1 -1.5,-4.2 -2.7,-6 -1.5,-2.1 -3.4,-3.7 -5.7,-4.9 -2.3,-1.2 -4.9,-1.7 -7.5,-1.7 -6.3,0 -11.1,2.5 -14.4,7.6 -2.5,3.7 -3.8,9.6 -3.8,17.6 0,9.9 1.5,16.7 4.5,20.4 3,3.7 7.2,5.5 12.7,5.5 5.3,0 9.3,-1.5 12,-4.4 2.7,-3.1 4.7,-7.4 5.9,-13 z m 56.5,-52.8 h 27.6 v 31.3 h 30.2 v -31.3 h 27.8 v 89.4 H 247.3 V 161 h -30.2 v 36.2 h -27.6 z"
     id="path8" />
  <path
     d="m 271.3,152.5 c 0,-14.6 4.1,-26 12.2,-34.1 8.1,-8.1 19.5,-12.2 34,-12.2 14.9,0 26.3,4 34.4,12 8.1,8 12.1,19.2 12.1,33.6 0,10.5 -1.8,19 -5.3,25.7 -3.4,6.6 -8.7,12 -15.2,15.6 -6.7,3.7 -15,5.6 -24.9,5.6 -10.1,0 -18.4,-1.6 -25,-4.8 -6.8,-3.4 -12.4,-8.7 -16.1,-15.2 -4.1,-7 -6.2,-15.7 -6.2,-26.2 z m 27.6,0.1 c 0,9 1.7,15.5 5,19.5 3.3,3.9 7.9,5.9 13.7,5.9 5.9,0 10.5,-1.9 13.8,-5.8 3.3,-3.9 4.9,-10.8 4.9,-20.8 0,-8.4 -1.7,-14.6 -5.1,-18.4 -3.4,-3.9 -8,-5.8 -13.8,-5.8 -5.1,-0.2 -10,2 -13.4,5.9 -3.4,3.9 -5.1,10.4 -5.1,19.5 z m 93.4,-0.1 c 0,-14.6 4.1,-26 12.2,-34.1 8.1,-8.1 19.5,-12.2 34,-12.2 14.9,0 26.4,4 34.4,12 8,8 12.1,19.2 12.1,33.6 0,10.5 -1.8,19 -5.3,25.7 -3.4,6.6 -8.7,12 -15.2,15.6 -6.7,3.7 -15,5.6 -24.9,5.6 -10.1,0 -18.4,-1.6 -25,-4.8 -6.8,-3.4 -12.4,-8.7 -16.1,-15.2 -4.1,-7 -6.2,-15.7 -6.2,-26.2 z m 27.6,0.1 c 0,9 1.7,15.5 5,19.5 3.3,3.9 7.9,5.9 13.7,5.9 5.9,0 10.5,-1.9 13.8,-5.8 3.3,-3.9 4.9,-10.8 4.9,-20.8 0,-8.4 -1.7,-14.6 -5.1,-18.4 -3.4,-3.9 -8,-5.8 -13.8,-5.8 -5.1,-0.2 -10.1,2 -13.4,5.9 -3.4,3.9 -5.1,10.4 -5.1,19.5 z"
     id="path10" />
  <path
     d="m 482.1,107.8 h 27.6 v 67.4 h 43.1 v 22 H 482 v -89.4 z"
     id="path12" />
  <ellipse
     transform="rotate(-37.001)"
     class="st0"
     cx="298.9498"
     cy="302.00476"
     rx="63"
     ry="51.799999"
     id="ellipse14" />
  <defs
     id="defs17">
    <ellipse
       id="SVGID_1_"
       transform="rotate(-37.001,420.46,67.88)"
       cx="420.5"
       cy="67.900002"
       rx="63"
       ry="51.799999" />
  </defs>
  <clipPath
     id="SVGID_2_">
    <use
       xlink:href="#SVGID_1_"
       overflow="visible"
       id="use19"
       x="0"
       y="0"
       width="100%"
       height="100%" />
  </clipPath>
  <g
     class="st1"
     clip-path="url(#SVGID_2_)"
     id="g78"
     transform="translate(0,-6.6)">
    <path
       transform="rotate(-37.001,420.82,68.353)"
       class="st0"
       d="M 330.9,-14.2 H 510.7 V 150.9 H 330.9 Z"
       id="path22" />
    <g
       id="Layer_2_1_">
      <defs
         id="defs25">
        <path
           id="SVGID_3_"
           transform="rotate(-37.001,420.82,68.353)"
           d="M 330.9,-14.2 H 510.7 V 150.9 H 330.9 Z" />
      </defs>
      <clipPath
         id="SVGID_4_">
        <use
           xlink:href="#SVGID_3_"
           overflow="visible"
           id="use27"
           x="0"
           y="0"
           width="100%"
           height="100%" />
      </clipPath>
      <g
         id="Layer_1-2"
         class="st2"
         clip-path="url(#SVGID_4_)">
        <ellipse
           transform="rotate(-37.001,420.46,67.88)"
           class="st0"
           cx="420.5"
           cy="67.900002"
           rx="63"
           ry="51.799999"
           id="ellipse30" />
        <defs
           id="defs33">
          <ellipse
             id="SVGID_5_"
             transform="rotate(-37.001,420.46,67.88)"
             cx="420.5"
             cy="67.900002"
             rx="63"
             ry="51.799999" />
        </defs>
        <clipPath
           id="SVGID_6_">
          <use
             xlink:href="#SVGID_5_"
             overflow="visible"
             id="use35"
             x="0"
             y="0"
             width="100%"
             height="100%" />
        </clipPath>
        <g
           class="st3"
           clip-path="url(#SVGID_6_)"
           id="g70">
          <path
             transform="rotate(-37,420.799,68.802)"
             class="st0"
             d="M 357.8,17 H 483.7 V 120.7 H 357.8 Z"
             id="path38" />
          <defs
             id="defs41">
            <path
               id="SVGID_7_"
               transform="rotate(-37,420.799,68.802)"
               d="M 357.8,17 H 483.7 V 120.7 H 357.8 Z" />
          </defs>
          <clipPath
             id="SVGID_8_">
            <use
               xlink:href="#SVGID_7_"
               overflow="visible"
               id="use43"
               x="0"
               y="0"
               width="100%"
               height="100%" />
          </clipPath>
          <g
             class="st4"
             clip-path="url(#SVGID_8_)"
             id="g48">
            <ellipse
               transform="rotate(-37.001,420.46,67.88)"
               class="st5"
               cx="420.5"
               cy="67.900002"
               rx="63"
               ry="51.799999"
               id="ellipse46" />
          </g>
          <path
             transform="rotate(-37,420.799,68.802)"
             class="st6"
             d="M 357.8,17 H 483.7 V 120.7 H 357.8 Z"
             clip-path="url(#SVGID_8_)"
             id="path50" />
          <ellipse
             transform="rotate(-37.001,420.46,67.88)"
             class="st7"
             cx="420.5"
             cy="67.900002"
             rx="63"
             ry="51.799999"
             id="ellipse52" />
          <path
             transform="rotate(-37,420.799,68.802)"
             class="st0"
             d="M 357.8,17 H 483.7 V 120.7 H 357.8 Z"
             id="path54" />
          <defs
             id="defs57">
            <path
               id="SVGID_9_"
               transform="rotate(-37,420.799,68.802)"
               d="M 357.8,17 H 483.7 V 120.7 H 357.8 Z" />
          </defs>
          <clipPath
             id="SVGID_10_">
            <use
               xlink:href="#SVGID_9_"
               overflow="visible"
               id="use59"
               x="0"
               y="0"
               width="100%"
               height="100%" />
          </clipPath>
          <g
             class="st8"
             clip-path="url(#SVGID_10_)"
             id="g64">
            <ellipse
               transform="rotate(-37.001,420.46,67.88)"
               class="st5"
               cx="420.5"
               cy="67.900002"
               rx="63"
               ry="51.799999"
               id="ellipse62" />
          </g>
          <path
             transform="rotate(-37,420.799,68.802)"
             class="st9"
             d="M 357.8,17 H 483.7 V 120.7 H 357.8 Z"
             clip-path="url(#SVGID_10_)"
             id="path66" />
          <path
             transform="rotate(-37.001,420.82,68.353)"
             class="st7"
             d="M 330.9,-14.2 H 510.7 V 150.9 H 330.9 Z"
             id="path68" />
        </g>
        <ellipse
           transform="rotate(-37.001,420.46,67.88)"
           class="st7"
           cx="420.5"
           cy="67.900002"
           rx="63"
           ry="51.799999"
           id="ellipse72" />
        <path
           d="m 392.4,61.3 10,-7 12.3,17.5 c 2.1,2.8 3.7,5.8 4.9,9.1 0.7,2.5 0.5,5.2 -0.5,7.6 -1.3,3 -3.4,5.5 -6.2,7.3 -3.3,2.3 -6.1,3.6 -8.5,4 -2.3,0.4 -4.7,0 -6.9,-1 -2.4,-1.2 -4.5,-2.9 -6.1,-5.1 l 8.6,-8 c 0.7,1.1 1.6,2.1 2.6,2.9 0.7,0.5 1.5,0.8 2.4,0.8 0.7,0 1.4,-0.3 1.9,-0.7 1,-0.6 1.7,-1.8 1.6,-3 -0.3,-1.7 -1,-3.4 -2.1,-4.7 z m 30,11.1 9.1,-7.2 c 1,1.2 2.3,2.1 3.7,2.6 2,0.6 4.1,0.2 5.8,-1.1 1.2,-0.8 2.2,-1.9 2.6,-3.3 0.6,-1.8 -0.4,-3.8 -2.2,-4.4 -0.3,-0.1 -0.6,-0.2 -0.9,-0.2 -1.2,-0.1 -3.3,0.4 -6.4,1.7 -5.1,2.1 -9.1,2.9 -12.1,2.6 -2.9,-0.3 -5.6,-1.8 -7.2,-4.3 -1.2,-1.7 -1.8,-3.7 -1.9,-5.7 0,-2.3 0.6,-4.6 1.9,-6.5 1.9,-2.7 4.2,-5 7,-6.8 4.2,-2.9 7.9,-4.3 11.1,-4.3 3.2,0 6.2,1.5 9,4.6 l -9,7.1 c -1.8,-2.3 -5.2,-2.8 -7.5,-1 l -0.3,0.3 c -1,0.6 -1.7,1.5 -2.1,2.6 -0.3,0.8 -0.1,1.7 0.4,2.4 0.4,0.5 1,0.9 1.7,0.9 0.8,0.1 2.2,-0.3 4.2,-1.2 5,-2.1 8.8,-3.3 11.4,-3.7 2.2,-0.4 4.5,-0.2 6.6,0.7 1.9,0.8 3.5,2.2 4.6,3.9 1.4,2 2.2,4.4 2.3,6.9 0.1,2.6 -0.6,5.1 -2,7.3 -1.8,2.7 -4.1,5 -6.8,6.8 -5.5,3.8 -10,5.4 -13.6,4.8 -3.9,-0.6 -7.1,-2.6 -9.4,-5.5 z"
           id="path74" />
      </g>
    </g>
  </g>
</svg>
